# xmcd CD database file
#
# Track frame offsets:
#	150
#	23615
#	47247
#	70742
#
# Disc length: 1255 seconds
#
# Revision: 0
# Processed by: cddbd v1.5.1PL0 Copyright (c) Steve Scherf et al.
# Submitted via: CDex 1.51
#
DISCID=2b04e504
DTITLE=清木場俊介 - いつか…
DYEAR=2005
DGENRE=J-Pop
TTITLE0=いつか…
TTITLE1=なにもできない
TTITLE2=いつか…（カラオケ）
TTITLE3=なにもできない（カラオケ）
EXTD=YEAR: 2005
EXTT0=
EXTT1=
EXTT2=
EXTT3=
PLAYORDER=
